<?xml version="1.0" standalone="no"?>
<!DOCTYPE svg PUBLIC "-//W3C//DTD SVG 20010904//EN"
 "http://www.w3.org/TR/2001/REC-SVG-20010904/DTD/svg10.dtd">
<svg version="1.0" xmlns="http://www.w3.org/2000/svg"
 width="800.000000pt" height="800.000000pt" viewBox="0 0 800.000000 800.000000"
 preserveAspectRatio="xMidYMid meet">

<g transform="translate(0.000000,800.000000) scale(0.100000,-0.100000)"
fill="#000000" stroke="none">
<path d="M5726 4057 c-335 -991 -611 -1808 -614 -1814 -3 -10 20 -13 96 -13
86 0 101 2 107 17 6 16 1023 3019 1165 3441 l59 172 -102 0 -102 0 -609 -1803z"/>
<path d="M3351 5765 c-212 -41 -315 -88 -421 -195 -108 -107 -152 -205 -169
-373 -5 -51 -12 -416 -16 -812 -3 -396 -10 -751 -16 -790 -36 -269 -51 -343
-96 -485 -99 -318 -213 -522 -378 -679 -41 -39 -75 -77 -75 -85 0 -34 89 -87
190 -112 78 -19 325 -18 420 2 433 90 772 399 935 854 51 144 66 202 101 415
27 159 47 2216 22 2231 -52 33 -380 52 -497 29z"/>
<path d="M4870 5756 c-162 -35 -213 -53 -292 -105 -91 -59 -159 -135 -203
-227 -62 -128 -64 -143 -69 -944 -5 -760 -9 -852 -52 -1078 -82 -430 -231
-758 -438 -965 -87 -86 -88 -87 -72 -111 18 -28 102 -71 177 -91 71 -19 320
-20 414 -1 516 103 896 521 1016 1117 42 213 42 189 46 1306 4 1068 4 1072
-16 1083 -32 17 -217 40 -316 39 -53 -1 -133 -10 -195 -23z"/>
<path d="M1510 4470 l-565 -269 0 -101 0 -101 565 -259 565 -258 3 141 c1 77
-1 144 -5 148 -4 4 -183 78 -398 164 -214 86 -393 160 -397 164 -4 4 171 83
390 175 218 93 401 172 405 176 4 4 6 70 5 147 l-3 141 -565 -268z"/>
<path d="M6422 4483 l3 -148 397 -160 c219 -89 399 -163 402 -166 3 -2 -174
-80 -392 -173 -218 -92 -401 -171 -405 -175 -4 -4 -6 -71 -5 -148 l3 -140 560
266 560 266 0 105 0 104 -530 243 c-291 133 -545 249 -563 258 l-33 15 3 -147z"/>
</g>
</svg>
